<svg xmlns="http://www.w3.org/2000/svg" xmlns:xlink="http://www.w3.org/1999/xlink" version="1.1" id="Layer_1" x="0" y="0" preserveAspectRatio="xMinYMin meet" viewBox="0 0 425 146" xml:space="preserve">
  <path fill="#fff" d="M10.22 0.8c-2.71 0-4.91 2.21-4.91 4.92v48.04c0 2.71 2.2 4.92 4.92 4.92h30.74c2.52-0.09 4.49-2.09 4.49-4.57 0-2.47-2.01-4.48-4.48-4.48H14.96V5.72C14.96 2.96 12.88 0.8 10.22 0.8z"/>
  <path fill="#fff" d="M144.08 45.84h26.49l5.11 10.94c0.96 1.84 2.12 2.59 4 2.59 2.96 0 4.57-2.31 4.57-4.48 0-0.62-0.16-1.25-0.47-1.87L161.41 3.3c-0.72-1.68-2.06-2.5-4.09-2.5-1.96 0-3.34 0.84-4.09 2.5l-22.36 49.7c-0.32 0.65-0.48 1.27-0.48 1.89 0 2.17 1.6 4.48 4.57 4.48 1.83 0 2.99-0.76 4.02-2.62L144.08 45.84zM167.16 37.49H147.5l9.83-24L167.16 37.49z"/>
  <path fill="#fff" d="M160.34 86.54c-17.19 0-29.2 12.19-29.2 29.64 0 17.45 12.01 29.64 29.2 29.64 7.57 0 14.72-2.72 19.12-7.27 1.04-1.04 1.52-2.06 1.52-3.24 0-2.18-1.48-4.39-4.3-4.39-1.06 0-2.11 0.37-3.21 1.14-3.24 2.47-6.93 4.89-13.13 4.89-11.45 0-19.45-8.54-19.45-20.77 0-12.22 8-20.77 19.45-20.77 6.19 0 9.89 2.43 13.14 4.91 1.08 0.75 2.13 1.12 3.19 1.12 2.83 0 4.3-2.21 4.3-4.39 0-1.17-0.48-2.19-1.51-3.23C175.07 89.26 167.92 86.54 160.34 86.54z"/>
  <path fill="#fff" d="M215.08 119.78h28.6v20.77c0 2.71 2.17 4.92 4.83 4.92s4.83-2.2 4.83-4.92V91.81c0-2.71-2.17-4.92-4.83-4.92s-4.83 2.21-4.83 4.92v19.02h-28.6V91.81c0-2.76-2.08-4.92-4.74-4.92-2.71 0-4.92 2.21-4.92 4.92v48.74c0 2.71 2.21 4.92 4.92 4.92 2.66 0 4.74-2.16 4.74-4.92V119.78z"/>
  <path fill="#fff" d="M226.32 1.5h-15.99c-2.71 0-4.91 2.17-4.91 4.83v47.52c0 2.67 2.16 4.83 4.83 4.83 0.02 0 0.03 0 0.04 0 0.02 0 0.03 0 0.04 0h15.99c16.78 0 28.5-11.76 28.5-28.59C254.82 13.26 243.1 1.5 226.32 1.5zM225.8 49.81h-10.72V10.37h10.72c11.76 0 19.37 7.74 19.37 19.72C245.16 42.07 237.56 49.81 225.8 49.81z"/>
  <path fill="#fff" d="M5.07 87.59c-2.56 0-4.57 2.01-4.57 4.57 0 2.47 2.05 4.48 4.57 4.48h15.53v43.91c0 2.76 2.08 4.92 4.74 4.92 2.71 0 4.92-2.2 4.92-4.92V96.64h15.44c2.56 0 4.57-1.97 4.57-4.48 0-2.52-2.05-4.57-4.57-4.57H5.07z"/>
  <path fill="#fff" d="M107.8 49.81H79.78V10.37h26.71c2.56 0 4.57-1.97 4.57-4.48 0-2.46-2-4.39-4.57-4.39H75.04c-2.71 0-4.91 2.17-4.91 4.83v47.52c0 2.67 2.21 4.83 4.92 4.83h32.76c2.56 0 4.57-1.93 4.57-4.39C112.36 51.77 110.36 49.81 107.8 49.81z"/>
  <path fill="#fff" d="M96.72 30.09c0 3.03-2.45 5.48-5.48 5.48l0 0c-3.03 0-5.48-2.45-5.48-5.48l0 0c0-3.03 2.45-5.48 5.48-5.48l0 0C94.27 24.61 96.72 27.06 96.72 30.09L96.72 30.09z"/>
  <path fill="#fff" d="M107.8 135.89H79.78V96.46h26.71c2.56 0 4.57-1.97 4.57-4.48 0-2.46-2-4.39-4.57-4.39H75.04c-2.71 0-4.91 2.16-4.91 4.83v47.52c0 2.66 2.21 4.83 4.92 4.83h32.76c2.56 0 4.57-1.93 4.57-4.39C112.36 137.86 110.36 135.89 107.8 135.89z"/>
  <path fill="#fff" d="M96.72 116.18c0 3.03-2.45 5.48-5.48 5.48l0 0c-3.03 0-5.48-2.45-5.48-5.48l0 0c0-3.03 2.45-5.48 5.48-5.48l0 0C94.27 110.7 96.72 113.15 96.72 116.18L96.72 116.18z"/>
  <circle fill="#E69932" cx="288.5" cy="105.82" r="6.27"/>
  <circle fill="#E37425" cx="353.87" cy="73.13" r="6.27"/>
  <path fill="#E37425" d="M337.57 73.13c0 3.46-2.81 6.27-6.27 6.27h-42.8c-3.46 0-6.27-2.81-6.27-6.27l0 0c0-3.46 2.81-6.27 6.27-6.27h42.8C334.77 66.87 337.57 69.67 337.57 73.13L337.57 73.13z"/>
  <path fill="#E37425" d="M425.5 73.13c0 3.46-2.81 6.27-6.27 6.27h-42.8c-3.46 0-6.27-2.81-6.27-6.27l0 0c0-3.46 2.81-6.27 6.27-6.27h42.8C422.69 66.87 425.5 69.67 425.5 73.13L425.5 73.13z"/>
  <circle fill="#126D85" cx="334.35" cy="7.77" r="6.27"/>
  <path fill="#9D4F9D" d="M328.08 138.5c0 3.46-2.81 6.27-6.27 6.27h-33.31c-3.46 0-6.27-2.8-6.27-6.27l0 0c0-3.46 2.81-6.27 6.27-6.27h33.31C325.27 132.23 328.08 135.04 328.08 138.5L328.08 138.5z"/>
  <path fill="#8AC43F" d="M371.78 40.45c0 3.46-2.81 6.27-6.27 6.27h-77c-3.46 0-6.27-2.81-6.27-6.27l0 0c0-3.46 2.81-6.27 6.27-6.27h77C368.97 34.18 371.78 36.99 371.78 40.45L371.78 40.45z"/>
  <path fill="#00AE9A" d="M318.05 7.77c0 3.46-2.81 6.27-6.27 6.27h-23.28c-3.46 0-6.27-2.81-6.27-6.27l0 0c0-3.46 2.81-6.27 6.27-6.27h23.28C315.25 1.5 318.05 4.31 318.05 7.77L318.05 7.77z"/>
  <path fill="#ED335F" d="M380.37 105.82c0 3.46-2.81 6.27-6.27 6.27h-63.04c-3.46 0-6.27-2.8-6.27-6.27l0 0c0-3.46 2.81-6.27 6.27-6.27h63.04C377.57 99.55 380.37 102.35 380.37 105.82L380.37 105.82z"/>
</svg>
